
<svg xmlns="http://www.w3.org/2000/svg" version="1.1" xmlns:xlink="http://www.w3.org/1999/xlink" preserveAspectRatio="none" x="0px" y="0px" width="1920px" height="1080px" viewBox="0 0 1920 1080">
<defs>
<radialGradient id="Gradient_1" gradientUnits="userSpaceOnUse" cx="0" cy="0" r="2661.7750987358045" fx="177.45166666666668" fy="0.048333333333363405" gradientTransform="matrix( 0.9999999629060305, 0.00027237462712170345, -0.00009861839947509952, 0.43438587300224907, 998.7,914.45) " spreadMethod="pad">
<stop  offset="3.5294117647058822%" stop-color="#28A9EF" stop-opacity="0.8980392156862745"/>

<stop  offset="90.98039215686275%" stop-color="#002F52"/>
</radialGradient>

<g id="Layer1_0_FILL">
<path fill="url(#Gradient_1)" stroke="none" d="
M 1920 1080
L 1920 0 0 0 0 1080 1920 1080 Z"/>
</g>

<path id="Rounded_Rect_0_Layer0_0_1_STROKES" stroke="#00B6E7" stroke-width="4" stroke-linejoin="round" stroke-linecap="round" fill="none" d="
M 135.35 0
L 347.95 0
Q 404 0 443.65 39.65 483.3 79.3 483.3 135.35 483.3 191.4 443.65 231.05 404 270.7 347.95 270.7
L 135.35 270.7
Q 79.3 270.7 39.65 231.05 0 191.4 0 135.35 0 79.3 39.65 39.65 79.3 0 135.35 0 Z"/>
</defs>

<g transform="matrix( 1, 0, 0, 1, 0,0) ">
<use xlink:href="#Layer1_0_FILL"/>
</g>

<g transform="matrix( 0, 0.7784271240234375, -0.7784271240234375, 0, 739.1,289.15) ">
<g transform="matrix( 1, 0, 0, 1, 0,0) ">
<use xlink:href="#Rounded_Rect_0_Layer0_0_1_STROKES"/>
</g>
</g>

<g transform="matrix( 0, 0.7784271240234375, -0.7784271240234375, 0, 1266.5,417.5) ">
<g transform="matrix( 1, 0, 0, 1, 0,0) ">
<use xlink:href="#Rounded_Rect_0_Layer0_0_1_STROKES"/>
</g>
</g>

<g transform="matrix( 0, 0.3982391357421875, -0.3982391357421875, 0, 1337.4,447.25) ">
<g transform="matrix( 1, 0, 0, 1, 0,0) ">
<use xlink:href="#Rounded_Rect_0_Layer0_0_1_STROKES"/>
</g>
</g>

<g transform="matrix( 0, 0.3982391357421875, -0.3982391357421875, 0, 769.9,472.9) ">
<g transform="matrix( 1, 0, 0, 1, 0,0) ">
<use xlink:href="#Rounded_Rect_0_Layer0_0_1_STROKES"/>
</g>
</g>

<g transform="matrix( 0, 0.3982391357421875, -0.3982391357421875, 0, 1963.1,212.2) ">
<g transform="matrix( 1, 0, 0, 1, 0,0) ">
<use xlink:href="#Rounded_Rect_0_Layer0_0_1_STROKES"/>
</g>
</g>

<g transform="matrix( 0, 0.7784271240234375, -0.7784271240234375, 0, 1998.45,289.15) ">
<g transform="matrix( 1, 0, 0, 1, 0,0) ">
<use xlink:href="#Rounded_Rect_0_Layer0_0_1_STROKES"/>
</g>
</g>

<g transform="matrix( 0, 0.3982391357421875, -0.3982391357421875, 0, 80,212.2) ">
<g transform="matrix( 1, 0, 0, 1, 0,0) ">
<use xlink:href="#Rounded_Rect_0_Layer0_0_1_STROKES"/>
</g>
</g>

<g transform="matrix( 0, 0.3982391357421875, -0.3982391357421875, 0, 559.3,212.2) ">
<g transform="matrix( 1, 0, 0, 1, 0,0) ">
<use xlink:href="#Rounded_Rect_0_Layer0_0_1_STROKES"/>
</g>
</g>

<g transform="matrix( 0, 0.3402252197265625, -0.3248291015625, 0, 814.05,75.8) ">
<g transform="matrix( 1, 0, 0, 1, 0,0) ">
<use xlink:href="#Rounded_Rect_0_Layer0_0_1_STROKES"/>
</g>
</g>

<g transform="matrix( 0, 0.4796295166015625, -0.547637939453125, 0, 339.8,428.5) ">
<g transform="matrix( 1, 0, 0, 1, 0,0) ">
<use xlink:href="#Rounded_Rect_0_Layer0_0_1_STROKES"/>
</g>
</g>

<g transform="matrix( 0, 0.16510009765625, -0.188507080078125, 0, 390.8,179.95) ">
<g transform="matrix( 1, 0, 0, 1, 0,0) ">
<use xlink:href="#Rounded_Rect_0_Layer0_0_1_STROKES"/>
</g>
</g>

<g transform="matrix( 0, 0.1652679443359375, -0.1887054443359375, 0, 242.6,101.1) ">
<g transform="matrix( 1, 0, 0, 1, 0,0) ">
<use xlink:href="#Rounded_Rect_0_Layer0_0_1_STROKES"/>
</g>
</g>

<g transform="matrix( 0, 0.4796142578125, -0.547637939453125, 0, 1156.15,335.6) ">
<g transform="matrix( 1, 0, 0, 1, 0,0) ">
<use xlink:href="#Rounded_Rect_0_Layer0_0_1_STROKES"/>
</g>
</g>

<g transform="matrix( 0, 0.1291046142578125, -0.1474151611328125, 0, 908.35,297.05) ">
<g transform="matrix( 1, 0, 0, 1, 0,0) ">
<use xlink:href="#Rounded_Rect_0_Layer0_0_1_STROKES"/>
</g>
</g>

<g transform="matrix( 0, 0.1894378662109375, -0.21630859375, 0, 739.3,95.25) ">
<g transform="matrix( 1, 0, 0, 1, 0,0) ">
<use xlink:href="#Rounded_Rect_0_Layer0_0_1_STROKES"/>
</g>
</g>

<g transform="matrix( 0, 0.14501953125, -0.16558837890625, 0, 1152.5,126.6) ">
<g transform="matrix( 1, 0, 0, 1, 0,0) ">
<use xlink:href="#Rounded_Rect_0_Layer0_0_1_STROKES"/>
</g>
</g>

<g transform="matrix( 0, 0.2003936767578125, -0.2288055419921875, 0, 1431.3,143.4) ">
<g transform="matrix( 1, 0, 0, 1, 0,0) ">
<use xlink:href="#Rounded_Rect_0_Layer0_0_1_STROKES"/>
</g>
</g>

<g transform="matrix( 0, 0.193328857421875, -0.2207489013671875, 0, 1559.7,266) ">
<g transform="matrix( 1, 0, 0, 1, 0,0) ">
<use xlink:href="#Rounded_Rect_0_Layer0_0_1_STROKES"/>
</g>
</g>

<g transform="matrix( 0, 0.1683197021484375, -0.1921844482421875, 0, 1647.8,437.2) ">
<g transform="matrix( 1, 0, 0, 1, 0,0) ">
<use xlink:href="#Rounded_Rect_0_Layer0_0_1_STROKES"/>
</g>
</g>

<g transform="matrix( 0, 0.20428466796875, -0.2332611083984375, 0, 1238.6,196.65) ">
<g transform="matrix( 1, 0, 0, 1, 0,0) ">
<use xlink:href="#Rounded_Rect_0_Layer0_0_1_STROKES"/>
</g>
</g>

<g transform="matrix( 0, 0.2160797119140625, -0.2467193603515625, 0, 1765.85,109.4) ">
<g transform="matrix( 1, 0, 0, 1, 0,0) ">
<use xlink:href="#Rounded_Rect_0_Layer0_0_1_STROKES"/>
</g>
</g>

<g transform="matrix( 0, 0.2102203369140625, -0.2400360107421875, 0, 1813.8,277.4) ">
<g transform="matrix( 1, 0, 0, 1, 0,0) ">
<use xlink:href="#Rounded_Rect_0_Layer0_0_1_STROKES"/>
</g>
</g>
</svg>
