
<svg xmlns="http://www.w3.org/2000/svg" version="1.1" xmlns:xlink="http://www.w3.org/1999/xlink" preserveAspectRatio="none" x="0px" y="0px" width="1920px" height="1080px" viewBox="0 0 1920 1080">
<defs>
<radialGradient id="Gradient_1" gradientUnits="userSpaceOnUse" cx="0" cy="0" r="1427.6875" fx="95.17916666666666" fy="-1.1656086180384578e-14" gradientTransform="matrix( 1, 0, 0, 0.5263844503786719, 978.65,673.8) " spreadMethod="pad">
<stop  offset="0%" stop-color="#197BAF"/>

<stop  offset="54.509803921568626%" stop-color="#005195"/>

<stop  offset="100%" stop-color="#002C51"/>
</radialGradient>

<filter id="Filter_1" x="-20%" y="-20%" width="140%" height="140%" color-interpolation-filters="sRGB">
<feColorMatrix in="SourceGraphic" type="matrix" values="0.86 0 0 0 0.1411764705882353 0 0.86 0 0 0.1411764705882353 0 0 0.86 0 0.1411764705882353 0 0 0 1 0" result="result1"/>
</filter>

<filter id="Filter_2" x="-20%" y="-20%" width="140%" height="140%" color-interpolation-filters="sRGB">
<feColorMatrix in="SourceGraphic" type="matrix" values="0.34 0 0 0 0 0 1 0 0 0 0 0 0.03 0 0 0 0 0 1 0" result="result1"/>
</filter>

<g id="Layer2_0_FILL">
<path fill="url(#Gradient_1)" stroke="none" d="
M 1920 1080
L 1920 0 0 0 0 1080 1920 1080 Z"/>
</g>

<path id="Rounded_Rect_0_Layer0_0_1_STROKES" stroke="#0072BF" stroke-width="4" stroke-linejoin="round" stroke-linecap="round" fill="none" d="
M 135.35 0
L 347.95 0
Q 404 0 443.65 39.65 483.3 79.3 483.3 135.35 483.3 191.4 443.65 231.05 404 270.7 347.95 270.7
L 135.35 270.7
Q 79.3 270.7 39.65 231.05 0 191.4 0 135.35 0 79.3 39.65 39.65 79.3 0 135.35 0 Z"/>
</defs>

<g transform="matrix( 1, 0, 0, 1, 0,0) ">
<use xlink:href="#Layer2_0_FILL"/>
</g>

<g transform="matrix( 0.8657073974609375, 0, 0, 0.8657073974609375, 460.8,36.05) ">
<g transform="matrix( -0.080535888671875, 0.4478607177734375, -0.494781494140625, -0.0889739990234375, 722.85,24.1) ">
<g transform="matrix( 1, 0, 0, 1, 0,0) ">
<use xlink:href="#Rounded_Rect_0_Layer0_0_1_STROKES"/>
</g>
</g>

<g transform="matrix( 0.1541748046875, 0.4281005859375, -0.47296142578125, 0.1703338623046875, 478.65,15.9) ">
<g transform="matrix( 1, 0, 0, 1, 0,0) ">
<use xlink:href="#Rounded_Rect_0_Layer0_0_1_STROKES"/>
</g>
</g>

<g transform="matrix( 0.259735107421875, 0.37359619140625, -0.412750244140625, 0.28692626953125, 294.4,89.45) ">
<g transform="matrix( 1, 0, 0, 1, 0,0) ">
<use xlink:href="#Rounded_Rect_0_Layer0_0_1_STROKES"/>
</g>
</g>

<g transform="matrix( 0.4117431640625, 0.193695068359375, -0.2139892578125, 0.45489501953125, 114.35,238.45) ">
<g transform="matrix( 1, 0, 0, 1, 0,0) ">
<use xlink:href="#Rounded_Rect_0_Layer0_0_1_STROKES"/>
</g>
</g>

<g transform="matrix( 0.44781494140625, 0.0805206298828125, -0.0889739990234375, 0.4947509765625, 30.45,418.85) ">
<g transform="matrix( 1, 0, 0, 1, 0,0) ">
<use xlink:href="#Rounded_Rect_0_Layer0_0_1_STROKES"/>
</g>
</g>

<g transform="matrix( 0.4281005859375, -0.1541748046875, 0.170318603515625, 0.47296142578125, 0,651.55) ">
<g transform="matrix( 1, 0, 0, 1, 0,0) ">
<use xlink:href="#Rounded_Rect_0_Layer0_0_1_STROKES"/>
</g>
</g>

<g transform="matrix( -0.373626708984375, 0.25970458984375, -0.28692626953125, -0.4127655029296875, 314.3,825.85) ">
<g transform="matrix( 1, 0, 0, 1, 0,0) ">
<use xlink:href="#Rounded_Rect_0_Layer0_0_1_STROKES"/>
</g>
</g>

<g transform="matrix( -0.29364013671875, 0.3475799560546875, -0.38397216796875, -0.32440185546875, 424.4,916.5) ">
<g transform="matrix( 1, 0, 0, 1, 0,0) ">
<use xlink:href="#Rounded_Rect_0_Layer0_0_1_STROKES"/>
</g>
</g>

<g transform="matrix( -0.193695068359375, 0.4117431640625, -0.45489501953125, -0.2139892578125, 560.4,965.25) ">
<g transform="matrix( 1, 0, 0, 1, 0,0) ">
<use xlink:href="#Rounded_Rect_0_Layer0_0_1_STROKES"/>
</g>
</g>

<g transform="matrix( 0.1541748046875, 0.4281005859375, -0.47296142578125, 0.1703338623046875, 671,909.15) ">
<g transform="matrix( 1, 0, 0, 1, 0,0) ">
<use xlink:href="#Rounded_Rect_0_Layer0_0_1_STROKES"/>
</g>
</g>

<g transform="matrix( 0.259735107421875, 0.37359619140625, -0.412750244140625, 0.28692626953125, 807.75,854.35) ">
<g transform="matrix( 1, 0, 0, 1, 0,0) ">
<use xlink:href="#Rounded_Rect_0_Layer0_0_1_STROKES"/>
</g>
</g>

<g transform="matrix( 0.3475799560546875, 0.29364013671875, -0.32440185546875, 0.384002685546875, 902.9,739.8) ">
<g transform="matrix( 1, 0, 0, 1, 0,0) ">
<use xlink:href="#Rounded_Rect_0_Layer0_0_1_STROKES"/>
</g>
</g>

<g transform="matrix( 0.4478607177734375, 0.080535888671875, -0.0889739990234375, 0.494781494140625, 936.9,603.55) ">
<g transform="matrix( 1, 0, 0, 1, 0,0) ">
<use xlink:href="#Rounded_Rect_0_Layer0_0_1_STROKES"/>
</g>
</g>

<g transform="matrix( 0.45343017578125, -0.038116455078125, 0.0420989990234375, 0.500946044921875, 917.75,432.9) ">
<g transform="matrix( 1, 0, 0, 1, 0,0) ">
<use xlink:href="#Rounded_Rect_0_Layer0_0_1_STROKES"/>
</g>
</g>

<g transform="matrix( 0.4281005859375, -0.1541748046875, 0.170318603515625, 0.47296142578125, 836.3,288.5) ">
<g transform="matrix( 1, 0, 0, 1, 0,0) ">
<use xlink:href="#Rounded_Rect_0_Layer0_0_1_STROKES"/>
</g>
</g>

<g transform="matrix( 0.293670654296875, -0.3475799560546875, 0.38397216796875, 0.324432373046875, 691.45,214.35) ">
<g transform="matrix( 1, 0, 0, 1, 0,0) ">
<use xlink:href="#Rounded_Rect_0_Layer0_0_1_STROKES"/>
</g>
</g>
</g>

<g transform="matrix( 1.2075042724609375, 0.1909332275390625, -0.1909332275390625, 1.2075042724609375, 374.95,-272.9) ">
<g transform="matrix( -0.080535888671875, 0.4478607177734375, -0.494781494140625, -0.0889739990234375, 722.85,24.1) ">
<g transform="matrix( 1, 0, 0, 1, 0,0) ">
<use filter="url(#Filter_1)" xlink:href="#Rounded_Rect_0_Layer0_0_1_STROKES"/>
</g>
</g>

<g transform="matrix( 0.1541748046875, 0.4281005859375, -0.47296142578125, 0.1703338623046875, 478.65,15.9) ">
<g transform="matrix( 1, 0, 0, 1, 0,0) ">
<use filter="url(#Filter_1)" xlink:href="#Rounded_Rect_0_Layer0_0_1_STROKES"/>
</g>
</g>

<g transform="matrix( 0.259735107421875, 0.37359619140625, -0.412750244140625, 0.28692626953125, 294.4,89.45) ">
<g transform="matrix( 1, 0, 0, 1, 0,0) ">
<use filter="url(#Filter_1)" xlink:href="#Rounded_Rect_0_Layer0_0_1_STROKES"/>
</g>
</g>

<g transform="matrix( 0.4117431640625, 0.193695068359375, -0.2139892578125, 0.45489501953125, 114.35,238.45) ">
<g transform="matrix( 1, 0, 0, 1, 0,0) ">
<use filter="url(#Filter_1)" xlink:href="#Rounded_Rect_0_Layer0_0_1_STROKES"/>
</g>
</g>

<g transform="matrix( 0.44781494140625, 0.0805206298828125, -0.0889739990234375, 0.4947509765625, 30.45,418.85) ">
<g transform="matrix( 1, 0, 0, 1, 0,0) ">
<use filter="url(#Filter_1)" xlink:href="#Rounded_Rect_0_Layer0_0_1_STROKES"/>
</g>
</g>

<g transform="matrix( 0.4281005859375, -0.1541748046875, 0.170318603515625, 0.47296142578125, 0,651.55) ">
<g transform="matrix( 1, 0, 0, 1, 0,0) ">
<use filter="url(#Filter_1)" xlink:href="#Rounded_Rect_0_Layer0_0_1_STROKES"/>
</g>
</g>

<g transform="matrix( -0.373626708984375, 0.25970458984375, -0.28692626953125, -0.4127655029296875, 314.3,825.85) ">
<g transform="matrix( 1, 0, 0, 1, 0,0) ">
<use filter="url(#Filter_1)" xlink:href="#Rounded_Rect_0_Layer0_0_1_STROKES"/>
</g>
</g>

<g transform="matrix( -0.29364013671875, 0.3475799560546875, -0.38397216796875, -0.32440185546875, 424.4,916.5) ">
<g transform="matrix( 1, 0, 0, 1, 0,0) ">
<use filter="url(#Filter_1)" xlink:href="#Rounded_Rect_0_Layer0_0_1_STROKES"/>
</g>
</g>

<g transform="matrix( -0.193695068359375, 0.4117431640625, -0.45489501953125, -0.2139892578125, 560.4,965.25) ">
<g transform="matrix( 1, 0, 0, 1, 0,0) ">
<use filter="url(#Filter_1)" xlink:href="#Rounded_Rect_0_Layer0_0_1_STROKES"/>
</g>
</g>

<g transform="matrix( 0.1541748046875, 0.4281005859375, -0.47296142578125, 0.1703338623046875, 671,909.15) ">
<g transform="matrix( 1, 0, 0, 1, 0,0) ">
<use filter="url(#Filter_1)" xlink:href="#Rounded_Rect_0_Layer0_0_1_STROKES"/>
</g>
</g>

<g transform="matrix( 0.259735107421875, 0.37359619140625, -0.412750244140625, 0.28692626953125, 807.75,854.35) ">
<g transform="matrix( 1, 0, 0, 1, 0,0) ">
<use filter="url(#Filter_1)" xlink:href="#Rounded_Rect_0_Layer0_0_1_STROKES"/>
</g>
</g>

<g transform="matrix( 0.3475799560546875, 0.29364013671875, -0.32440185546875, 0.384002685546875, 902.9,739.8) ">
<g transform="matrix( 1, 0, 0, 1, 0,0) ">
<use filter="url(#Filter_1)" xlink:href="#Rounded_Rect_0_Layer0_0_1_STROKES"/>
</g>
</g>

<g transform="matrix( 0.4478607177734375, 0.080535888671875, -0.0889739990234375, 0.494781494140625, 936.9,603.55) ">
<g transform="matrix( 1, 0, 0, 1, 0,0) ">
<use filter="url(#Filter_1)" xlink:href="#Rounded_Rect_0_Layer0_0_1_STROKES"/>
</g>
</g>

<g transform="matrix( 0.45343017578125, -0.038116455078125, 0.0420989990234375, 0.500946044921875, 917.75,432.9) ">
<g transform="matrix( 1, 0, 0, 1, 0,0) ">
<use filter="url(#Filter_1)" xlink:href="#Rounded_Rect_0_Layer0_0_1_STROKES"/>
</g>
</g>

<g transform="matrix( 0.4281005859375, -0.1541748046875, 0.170318603515625, 0.47296142578125, 836.3,288.5) ">
<g transform="matrix( 1, 0, 0, 1, 0,0) ">
<use filter="url(#Filter_1)" xlink:href="#Rounded_Rect_0_Layer0_0_1_STROKES"/>
</g>
</g>

<g transform="matrix( 0.293670654296875, -0.3475799560546875, 0.38397216796875, 0.324432373046875, 691.45,214.35) ">
<g transform="matrix( 1, 0, 0, 1, 0,0) ">
<use filter="url(#Filter_1)" xlink:href="#Rounded_Rect_0_Layer0_0_1_STROKES"/>
</g>
</g>
</g>

<g transform="matrix( 1.51898193359375, 0.4701080322265625, -0.4701080322265625, 1.51898193359375, 357.7,-615.25) ">
<g transform="matrix( -0.080535888671875, 0.4478607177734375, -0.494781494140625, -0.0889739990234375, 722.85,24.1) ">
<g transform="matrix( 1, 0, 0, 1, 0,0) ">
<use filter="url(#Filter_2)" xlink:href="#Rounded_Rect_0_Layer0_0_1_STROKES"/>
</g>
</g>

<g transform="matrix( 0.1541748046875, 0.4281005859375, -0.47296142578125, 0.1703338623046875, 478.65,15.9) ">
<g transform="matrix( 1, 0, 0, 1, 0,0) ">
<use filter="url(#Filter_2)" xlink:href="#Rounded_Rect_0_Layer0_0_1_STROKES"/>
</g>
</g>

<g transform="matrix( 0.259735107421875, 0.37359619140625, -0.412750244140625, 0.28692626953125, 294.4,89.45) ">
<g transform="matrix( 1, 0, 0, 1, 0,0) ">
<use filter="url(#Filter_2)" xlink:href="#Rounded_Rect_0_Layer0_0_1_STROKES"/>
</g>
</g>

<g transform="matrix( 0.4117431640625, 0.193695068359375, -0.2139892578125, 0.45489501953125, 114.35,238.45) ">
<g transform="matrix( 1, 0, 0, 1, 0,0) ">
<use filter="url(#Filter_2)" xlink:href="#Rounded_Rect_0_Layer0_0_1_STROKES"/>
</g>
</g>

<g transform="matrix( 0.44781494140625, 0.0805206298828125, -0.0889739990234375, 0.4947509765625, 30.45,418.85) ">
<g transform="matrix( 1, 0, 0, 1, 0,0) ">
<use filter="url(#Filter_2)" xlink:href="#Rounded_Rect_0_Layer0_0_1_STROKES"/>
</g>
</g>

<g transform="matrix( 0.4281005859375, -0.1541748046875, 0.170318603515625, 0.47296142578125, 0,651.55) ">
<g transform="matrix( 1, 0, 0, 1, 0,0) ">
<use filter="url(#Filter_2)" xlink:href="#Rounded_Rect_0_Layer0_0_1_STROKES"/>
</g>
</g>

<g transform="matrix( -0.373626708984375, 0.25970458984375, -0.28692626953125, -0.4127655029296875, 314.3,825.85) ">
<g transform="matrix( 1, 0, 0, 1, 0,0) ">
<use filter="url(#Filter_2)" xlink:href="#Rounded_Rect_0_Layer0_0_1_STROKES"/>
</g>
</g>

<g transform="matrix( -0.29364013671875, 0.3475799560546875, -0.38397216796875, -0.32440185546875, 424.4,916.5) ">
<g transform="matrix( 1, 0, 0, 1, 0,0) ">
<use filter="url(#Filter_2)" xlink:href="#Rounded_Rect_0_Layer0_0_1_STROKES"/>
</g>
</g>

<g transform="matrix( -0.193695068359375, 0.4117431640625, -0.45489501953125, -0.2139892578125, 560.4,965.25) ">
<g transform="matrix( 1, 0, 0, 1, 0,0) ">
<use filter="url(#Filter_2)" xlink:href="#Rounded_Rect_0_Layer0_0_1_STROKES"/>
</g>
</g>

<g transform="matrix( 0.1541748046875, 0.4281005859375, -0.47296142578125, 0.1703338623046875, 671,909.15) ">
<g transform="matrix( 1, 0, 0, 1, 0,0) ">
<use filter="url(#Filter_2)" xlink:href="#Rounded_Rect_0_Layer0_0_1_STROKES"/>
</g>
</g>

<g transform="matrix( 0.259735107421875, 0.37359619140625, -0.412750244140625, 0.28692626953125, 807.75,854.35) ">
<g transform="matrix( 1, 0, 0, 1, 0,0) ">
<use filter="url(#Filter_2)" xlink:href="#Rounded_Rect_0_Layer0_0_1_STROKES"/>
</g>
</g>

<g transform="matrix( 0.3475799560546875, 0.29364013671875, -0.32440185546875, 0.384002685546875, 902.9,739.8) ">
<g transform="matrix( 1, 0, 0, 1, 0,0) ">
<use filter="url(#Filter_2)" xlink:href="#Rounded_Rect_0_Layer0_0_1_STROKES"/>
</g>
</g>

<g transform="matrix( 0.4478607177734375, 0.080535888671875, -0.0889739990234375, 0.494781494140625, 936.9,603.55) ">
<g transform="matrix( 1, 0, 0, 1, 0,0) ">
<use filter="url(#Filter_2)" xlink:href="#Rounded_Rect_0_Layer0_0_1_STROKES"/>
</g>
</g>

<g transform="matrix( 0.45343017578125, -0.038116455078125, 0.0420989990234375, 0.500946044921875, 917.75,432.9) ">
<g transform="matrix( 1, 0, 0, 1, 0,0) ">
<use filter="url(#Filter_2)" xlink:href="#Rounded_Rect_0_Layer0_0_1_STROKES"/>
</g>
</g>

<g transform="matrix( 0.4281005859375, -0.1541748046875, 0.170318603515625, 0.47296142578125, 836.3,288.5) ">
<g transform="matrix( 1, 0, 0, 1, 0,0) ">
<use filter="url(#Filter_2)" xlink:href="#Rounded_Rect_0_Layer0_0_1_STROKES"/>
</g>
</g>

<g transform="matrix( 0.293670654296875, -0.3475799560546875, 0.38397216796875, 0.324432373046875, 691.45,214.35) ">
<g transform="matrix( 1, 0, 0, 1, 0,0) ">
<use filter="url(#Filter_2)" xlink:href="#Rounded_Rect_0_Layer0_0_1_STROKES"/>
</g>
</g>
</g>
</svg>
